<mxfile host="www.draw.io" modified="2020-04-10T15:09:55.709Z" agent="5.0 (Macintosh; Intel Mac OS X 10_15_1) AppleWebKit/537.36 (KHTML, like Gecko) Chrome/80.0.3987.149 Safari/537.36" etag="DP7FdvqZdH2z6dzM8QzB" version="12.9.10" type="github" pages="6">
  <diagram id="AKySBRokzylHcW2O-Z-e" name="01 - tik">
    <mxGraphModel dx="715" dy="352" grid="1" gridSize="10" guides="1" tooltips="1" connect="1" arrows="1" fold="1" page="1" pageScale="1" pageWidth="1920" pageHeight="1200" math="0" shadow="0">
      <root>
        <mxCell id="0" />
        <mxCell id="1" parent="0" />
        <mxCell id="5NZEBFaEDi9C0aIBibyY-12" value="Tickets Service" style="rounded=0;whiteSpace=wrap;html=1;fillColor=#dae8fc;strokeColor=#6c8ebf;fontStyle=1;fontSize=18;" vertex="1" parent="1">
          <mxGeometry x="360" y="240" width="560" height="40" as="geometry" />
        </mxCell>
        <mxCell id="5NZEBFaEDi9C0aIBibyY-13" value="Route" style="rounded=0;whiteSpace=wrap;html=1;fontSize=18;fillColor=#d5e8d4;strokeColor=#82b366;" vertex="1" parent="1">
          <mxGeometry x="360" y="280" width="140" height="40" as="geometry" />
        </mxCell>
        <mxCell id="5NZEBFaEDi9C0aIBibyY-14" value="Method" style="rounded=0;whiteSpace=wrap;html=1;fontSize=18;fillColor=#d5e8d4;strokeColor=#82b366;" vertex="1" parent="1">
          <mxGeometry x="500" y="280" width="140" height="40" as="geometry" />
        </mxCell>
        <mxCell id="5NZEBFaEDi9C0aIBibyY-15" value="Body" style="rounded=0;whiteSpace=wrap;html=1;fontSize=18;fillColor=#d5e8d4;strokeColor=#82b366;" vertex="1" parent="1">
          <mxGeometry x="640" y="280" width="140" height="40" as="geometry" />
        </mxCell>
        <mxCell id="5NZEBFaEDi9C0aIBibyY-16" value="Goal" style="rounded=0;whiteSpace=wrap;html=1;fontSize=18;fillColor=#d5e8d4;strokeColor=#82b366;" vertex="1" parent="1">
          <mxGeometry x="780" y="280" width="140" height="40" as="geometry" />
        </mxCell>
        <mxCell id="5NZEBFaEDi9C0aIBibyY-17" value="/api/tickets" style="rounded=0;whiteSpace=wrap;html=1;fontSize=14;" vertex="1" parent="1">
          <mxGeometry x="360" y="320" width="140" height="40" as="geometry" />
        </mxCell>
        <mxCell id="5NZEBFaEDi9C0aIBibyY-18" value="GET" style="rounded=0;whiteSpace=wrap;html=1;fontSize=14;" vertex="1" parent="1">
          <mxGeometry x="500" y="320" width="140" height="40" as="geometry" />
        </mxCell>
        <mxCell id="5NZEBFaEDi9C0aIBibyY-19" value="-" style="rounded=0;whiteSpace=wrap;html=1;fontSize=14;" vertex="1" parent="1">
          <mxGeometry x="640" y="320" width="140" height="40" as="geometry" />
        </mxCell>
        <mxCell id="5NZEBFaEDi9C0aIBibyY-20" value="Retrieve all tickets" style="rounded=0;whiteSpace=wrap;html=1;fontSize=14;" vertex="1" parent="1">
          <mxGeometry x="780" y="320" width="140" height="40" as="geometry" />
        </mxCell>
        <mxCell id="5NZEBFaEDi9C0aIBibyY-21" value="/api/tickets/:id" style="rounded=0;whiteSpace=wrap;html=1;fontSize=14;" vertex="1" parent="1">
          <mxGeometry x="360" y="360" width="140" height="40" as="geometry" />
        </mxCell>
        <mxCell id="5NZEBFaEDi9C0aIBibyY-22" value="GET" style="rounded=0;whiteSpace=wrap;html=1;fontSize=14;" vertex="1" parent="1">
          <mxGeometry x="500" y="360" width="140" height="40" as="geometry" />
        </mxCell>
        <mxCell id="5NZEBFaEDi9C0aIBibyY-23" value="-" style="rounded=0;whiteSpace=wrap;html=1;fontSize=14;" vertex="1" parent="1">
          <mxGeometry x="640" y="360" width="140" height="40" as="geometry" />
        </mxCell>
        <mxCell id="5NZEBFaEDi9C0aIBibyY-24" value="Retrieve ticket with specific ID" style="rounded=0;whiteSpace=wrap;html=1;fontSize=14;" vertex="1" parent="1">
          <mxGeometry x="780" y="360" width="140" height="40" as="geometry" />
        </mxCell>
        <mxCell id="5NZEBFaEDi9C0aIBibyY-25" value="/api/tickets" style="rounded=0;whiteSpace=wrap;html=1;fontSize=14;" vertex="1" parent="1">
          <mxGeometry x="360" y="400" width="140" height="40" as="geometry" />
        </mxCell>
        <mxCell id="5NZEBFaEDi9C0aIBibyY-26" value="POST" style="rounded=0;whiteSpace=wrap;html=1;fontSize=14;" vertex="1" parent="1">
          <mxGeometry x="500" y="400" width="140" height="40" as="geometry" />
        </mxCell>
        <mxCell id="5NZEBFaEDi9C0aIBibyY-27" value="{ title: string, price: string }" style="rounded=0;whiteSpace=wrap;html=1;fontSize=14;" vertex="1" parent="1">
          <mxGeometry x="640" y="400" width="140" height="40" as="geometry" />
        </mxCell>
        <mxCell id="5NZEBFaEDi9C0aIBibyY-28" value="Create a ticket" style="rounded=0;whiteSpace=wrap;html=1;fontSize=14;" vertex="1" parent="1">
          <mxGeometry x="780" y="400" width="140" height="40" as="geometry" />
        </mxCell>
        <mxCell id="5NZEBFaEDi9C0aIBibyY-29" value="/api/tickets/:id" style="rounded=0;whiteSpace=wrap;html=1;fontSize=14;" vertex="1" parent="1">
          <mxGeometry x="360" y="440" width="140" height="40" as="geometry" />
        </mxCell>
        <mxCell id="5NZEBFaEDi9C0aIBibyY-30" value="PUT" style="rounded=0;whiteSpace=wrap;html=1;fontSize=14;" vertex="1" parent="1">
          <mxGeometry x="500" y="440" width="140" height="40" as="geometry" />
        </mxCell>
        <mxCell id="5NZEBFaEDi9C0aIBibyY-31" value="{ title: string, price: string }" style="rounded=0;whiteSpace=wrap;html=1;fontSize=14;" vertex="1" parent="1">
          <mxGeometry x="640" y="440" width="140" height="40" as="geometry" />
        </mxCell>
        <mxCell id="5NZEBFaEDi9C0aIBibyY-32" value="Update a ticket" style="rounded=0;whiteSpace=wrap;html=1;fontSize=14;" vertex="1" parent="1">
          <mxGeometry x="780" y="440" width="140" height="40" as="geometry" />
        </mxCell>
      </root>
    </mxGraphModel>
  </diagram>
  <diagram id="NBkJ5XoD2my_zOULs8_r" name="02 - ticket">
    <mxGraphModel dx="715" dy="352" grid="1" gridSize="10" guides="1" tooltips="1" connect="1" arrows="1" fold="1" page="1" pageScale="1" pageWidth="1920" pageHeight="1200" math="0" shadow="0">
      <root>
        <mxCell id="a79_ThjCx1xK513ZJXG5-0" />
        <mxCell id="a79_ThjCx1xK513ZJXG5-1" parent="a79_ThjCx1xK513ZJXG5-0" />
        <mxCell id="a79_ThjCx1xK513ZJXG5-2" value="Tickets Service" style="rounded=0;whiteSpace=wrap;html=1;fontSize=18;fillColor=#f5f5f5;strokeColor=#666666;fontColor=#333333;fontStyle=1" vertex="1" parent="a79_ThjCx1xK513ZJXG5-1">
          <mxGeometry x="530" y="290" width="230" height="30" as="geometry" />
        </mxCell>
        <mxCell id="a79_ThjCx1xK513ZJXG5-10" style="edgeStyle=orthogonalEdgeStyle;rounded=0;orthogonalLoop=1;jettySize=auto;html=1;exitX=1;exitY=0.5;exitDx=0;exitDy=0;fontSize=18;" edge="1" parent="a79_ThjCx1xK513ZJXG5-1" source="a79_ThjCx1xK513ZJXG5-3" target="a79_ThjCx1xK513ZJXG5-6">
          <mxGeometry relative="1" as="geometry" />
        </mxCell>
        <mxCell id="a79_ThjCx1xK513ZJXG5-3" value="" style="rounded=0;whiteSpace=wrap;html=1;fontSize=14;fillColor=#f5f5f5;strokeColor=#666666;fontColor=#333333;fontStyle=1" vertex="1" parent="a79_ThjCx1xK513ZJXG5-1">
          <mxGeometry x="530" y="320" width="230" height="80" as="geometry" />
        </mxCell>
        <mxCell id="a79_ThjCx1xK513ZJXG5-4" value="Express App" style="rounded=0;whiteSpace=wrap;html=1;fontSize=14;" vertex="1" parent="a79_ThjCx1xK513ZJXG5-1">
          <mxGeometry x="550" y="330" width="190" height="60" as="geometry" />
        </mxCell>
        <mxCell id="a79_ThjCx1xK513ZJXG5-5" value="MongoDB for Tickets" style="rounded=0;whiteSpace=wrap;html=1;fontSize=18;fillColor=#f5f5f5;strokeColor=#666666;fontColor=#333333;fontStyle=1" vertex="1" parent="a79_ThjCx1xK513ZJXG5-1">
          <mxGeometry x="820" y="260" width="230" height="30" as="geometry" />
        </mxCell>
        <mxCell id="a79_ThjCx1xK513ZJXG5-6" value="" style="rounded=0;whiteSpace=wrap;html=1;fontSize=14;fillColor=#f5f5f5;strokeColor=#666666;fontColor=#333333;fontStyle=1" vertex="1" parent="a79_ThjCx1xK513ZJXG5-1">
          <mxGeometry x="820" y="290" width="230" height="170" as="geometry" />
        </mxCell>
        <mxCell id="a79_ThjCx1xK513ZJXG5-7" value="Tickets Collection" style="rounded=0;whiteSpace=wrap;html=1;fontSize=14;fillColor=#dae8fc;strokeColor=#6c8ebf;" vertex="1" parent="a79_ThjCx1xK513ZJXG5-1">
          <mxGeometry x="840" y="300" width="190" height="30" as="geometry" />
        </mxCell>
        <mxCell id="a79_ThjCx1xK513ZJXG5-11" value="" style="rounded=0;whiteSpace=wrap;html=1;fontSize=14;fillColor=#dae8fc;strokeColor=#6c8ebf;" vertex="1" parent="a79_ThjCx1xK513ZJXG5-1">
          <mxGeometry x="840" y="330" width="190" height="120" as="geometry" />
        </mxCell>
        <mxCell id="a79_ThjCx1xK513ZJXG5-12" value="{ title, price, userId }" style="rounded=0;whiteSpace=wrap;html=1;fontSize=14;" vertex="1" parent="a79_ThjCx1xK513ZJXG5-1">
          <mxGeometry x="865" y="345" width="140" height="30" as="geometry" />
        </mxCell>
        <mxCell id="a79_ThjCx1xK513ZJXG5-13" value="{ title, price, userId }" style="rounded=0;whiteSpace=wrap;html=1;fontSize=14;" vertex="1" parent="a79_ThjCx1xK513ZJXG5-1">
          <mxGeometry x="865" y="375" width="140" height="30" as="geometry" />
        </mxCell>
        <mxCell id="a79_ThjCx1xK513ZJXG5-14" value="{ title, price, userId }" style="rounded=0;whiteSpace=wrap;html=1;fontSize=14;" vertex="1" parent="a79_ThjCx1xK513ZJXG5-1">
          <mxGeometry x="865" y="405" width="140" height="30" as="geometry" />
        </mxCell>
      </root>
    </mxGraphModel>
  </diagram>
  <diagram id="7anr5Xum4h0n5bUyPV8S" name="03 - steps">
    <mxGraphModel dx="858" dy="422" grid="1" gridSize="10" guides="1" tooltips="1" connect="1" arrows="1" fold="1" page="1" pageScale="1" pageWidth="1920" pageHeight="1200" math="0" shadow="0">
      <root>
        <mxCell id="19Cy-sf6MM4zn7XgXn_P-0" />
        <mxCell id="19Cy-sf6MM4zn7XgXn_P-1" parent="19Cy-sf6MM4zn7XgXn_P-0" />
        <mxCell id="19Cy-sf6MM4zn7XgXn_P-2" value="Create package.json, install deps" style="rounded=0;whiteSpace=wrap;html=1;fontSize=18;fillColor=#dae8fc;strokeColor=#6c8ebf;" vertex="1" parent="19Cy-sf6MM4zn7XgXn_P-1">
          <mxGeometry x="540" y="210" width="460" height="50" as="geometry" />
        </mxCell>
        <mxCell id="19Cy-sf6MM4zn7XgXn_P-3" value="Write Dockerfile" style="rounded=0;whiteSpace=wrap;html=1;fontSize=18;fillColor=#dae8fc;strokeColor=#6c8ebf;" vertex="1" parent="19Cy-sf6MM4zn7XgXn_P-1">
          <mxGeometry x="540" y="270" width="460" height="50" as="geometry" />
        </mxCell>
        <mxCell id="19Cy-sf6MM4zn7XgXn_P-4" value="Create index.ts to run project" style="rounded=0;whiteSpace=wrap;html=1;fontSize=18;fillColor=#dae8fc;strokeColor=#6c8ebf;" vertex="1" parent="19Cy-sf6MM4zn7XgXn_P-1">
          <mxGeometry x="540" y="330" width="460" height="50" as="geometry" />
        </mxCell>
        <mxCell id="19Cy-sf6MM4zn7XgXn_P-5" value="Build image, push to docker hub" style="rounded=0;whiteSpace=wrap;html=1;fontSize=18;fillColor=#dae8fc;strokeColor=#6c8ebf;" vertex="1" parent="19Cy-sf6MM4zn7XgXn_P-1">
          <mxGeometry x="540" y="390" width="460" height="50" as="geometry" />
        </mxCell>
        <mxCell id="19Cy-sf6MM4zn7XgXn_P-6" value="Write k8s file for deployment, service" style="rounded=0;whiteSpace=wrap;html=1;fontSize=18;fillColor=#dae8fc;strokeColor=#6c8ebf;" vertex="1" parent="19Cy-sf6MM4zn7XgXn_P-1">
          <mxGeometry x="540" y="450" width="460" height="50" as="geometry" />
        </mxCell>
        <mxCell id="19Cy-sf6MM4zn7XgXn_P-7" value="Write k8s file for deployment, service" style="rounded=0;whiteSpace=wrap;html=1;fontSize=18;fillColor=#dae8fc;strokeColor=#6c8ebf;" vertex="1" parent="19Cy-sf6MM4zn7XgXn_P-1">
          <mxGeometry x="540" y="450" width="460" height="50" as="geometry" />
        </mxCell>
        <mxCell id="19Cy-sf6MM4zn7XgXn_P-8" value="Write k8s file for Mongodb deployment, service" style="rounded=0;whiteSpace=wrap;html=1;fontSize=18;fillColor=#dae8fc;strokeColor=#6c8ebf;" vertex="1" parent="19Cy-sf6MM4zn7XgXn_P-1">
          <mxGeometry x="540" y="570" width="460" height="50" as="geometry" />
        </mxCell>
        <mxCell id="19Cy-sf6MM4zn7XgXn_P-9" value="Update skaffold.yaml to do file sync for tickets" style="rounded=0;whiteSpace=wrap;html=1;fontSize=18;fillColor=#dae8fc;strokeColor=#6c8ebf;" vertex="1" parent="19Cy-sf6MM4zn7XgXn_P-1">
          <mxGeometry x="540" y="510" width="460" height="50" as="geometry" />
        </mxCell>
        <mxCell id="19Cy-sf6MM4zn7XgXn_P-10" value="" style="endArrow=classic;html=1;fontSize=18;" edge="1" parent="19Cy-sf6MM4zn7XgXn_P-1">
          <mxGeometry width="50" height="50" relative="1" as="geometry">
            <mxPoint x="530" y="210" as="sourcePoint" />
            <mxPoint x="530" y="621.1428571428571" as="targetPoint" />
          </mxGeometry>
        </mxCell>
      </root>
    </mxGraphModel>
  </diagram>
  <diagram name="04 - steps" id="z9mGE6HQgMYp5pnBJHdc">
    <mxGraphModel dx="858" dy="422" grid="1" gridSize="10" guides="1" tooltips="1" connect="1" arrows="1" fold="1" page="1" pageScale="1" pageWidth="1920" pageHeight="1200" math="0" shadow="0">
      <root>
        <mxCell id="su2hYm_iL0SFXj4LvrgG-0" />
        <mxCell id="su2hYm_iL0SFXj4LvrgG-1" parent="su2hYm_iL0SFXj4LvrgG-0" />
        <mxCell id="su2hYm_iL0SFXj4LvrgG-2" value="Create package.json, install deps" style="rounded=0;whiteSpace=wrap;html=1;fontSize=18;fillColor=#f5f5f5;strokeColor=#666666;fontColor=#333333;" vertex="1" parent="su2hYm_iL0SFXj4LvrgG-1">
          <mxGeometry x="540" y="210" width="460" height="50" as="geometry" />
        </mxCell>
        <mxCell id="su2hYm_iL0SFXj4LvrgG-3" value="Write Dockerfile" style="rounded=0;whiteSpace=wrap;html=1;fontSize=18;fillColor=#f5f5f5;strokeColor=#666666;fontColor=#333333;" vertex="1" parent="su2hYm_iL0SFXj4LvrgG-1">
          <mxGeometry x="540" y="270" width="460" height="50" as="geometry" />
        </mxCell>
        <mxCell id="su2hYm_iL0SFXj4LvrgG-4" value="Create index.ts to run project" style="rounded=0;whiteSpace=wrap;html=1;fontSize=18;fillColor=#f5f5f5;strokeColor=#666666;fontColor=#333333;" vertex="1" parent="su2hYm_iL0SFXj4LvrgG-1">
          <mxGeometry x="540" y="330" width="460" height="50" as="geometry" />
        </mxCell>
        <mxCell id="su2hYm_iL0SFXj4LvrgG-5" value="Build image, push to docker hub" style="rounded=0;whiteSpace=wrap;html=1;fontSize=18;fillColor=#dae8fc;strokeColor=#6c8ebf;" vertex="1" parent="su2hYm_iL0SFXj4LvrgG-1">
          <mxGeometry x="540" y="390" width="460" height="50" as="geometry" />
        </mxCell>
        <mxCell id="su2hYm_iL0SFXj4LvrgG-6" value="Write k8s file for deployment, service" style="rounded=0;whiteSpace=wrap;html=1;fontSize=18;fillColor=#dae8fc;strokeColor=#6c8ebf;" vertex="1" parent="su2hYm_iL0SFXj4LvrgG-1">
          <mxGeometry x="540" y="450" width="460" height="50" as="geometry" />
        </mxCell>
        <mxCell id="su2hYm_iL0SFXj4LvrgG-7" value="Write k8s file for deployment, service" style="rounded=0;whiteSpace=wrap;html=1;fontSize=18;fillColor=#dae8fc;strokeColor=#6c8ebf;" vertex="1" parent="su2hYm_iL0SFXj4LvrgG-1">
          <mxGeometry x="540" y="450" width="460" height="50" as="geometry" />
        </mxCell>
        <mxCell id="su2hYm_iL0SFXj4LvrgG-8" value="Write k8s file for Mongodb deployment, service" style="rounded=0;whiteSpace=wrap;html=1;fontSize=18;fillColor=#dae8fc;strokeColor=#6c8ebf;" vertex="1" parent="su2hYm_iL0SFXj4LvrgG-1">
          <mxGeometry x="540" y="570" width="460" height="50" as="geometry" />
        </mxCell>
        <mxCell id="su2hYm_iL0SFXj4LvrgG-9" value="Update skaffold.yaml to do file sync for tickets" style="rounded=0;whiteSpace=wrap;html=1;fontSize=18;fillColor=#dae8fc;strokeColor=#6c8ebf;" vertex="1" parent="su2hYm_iL0SFXj4LvrgG-1">
          <mxGeometry x="540" y="510" width="460" height="50" as="geometry" />
        </mxCell>
        <mxCell id="su2hYm_iL0SFXj4LvrgG-10" value="" style="endArrow=classic;html=1;fontSize=18;" edge="1" parent="su2hYm_iL0SFXj4LvrgG-1">
          <mxGeometry width="50" height="50" relative="1" as="geometry">
            <mxPoint x="530" y="210" as="sourcePoint" />
            <mxPoint x="530" y="621.1428571428571" as="targetPoint" />
          </mxGeometry>
        </mxCell>
        <mxCell id="su2hYm_iL0SFXj4LvrgG-11" value="" style="shape=curlyBracket;whiteSpace=wrap;html=1;rounded=1;fontSize=18;rotation=-180;" vertex="1" parent="su2hYm_iL0SFXj4LvrgG-1">
          <mxGeometry x="1010" y="210" width="30" height="170" as="geometry" />
        </mxCell>
        <mxCell id="su2hYm_iL0SFXj4LvrgG-12" value="Copy from auth service to save time!" style="text;html=1;strokeColor=none;fillColor=none;align=left;verticalAlign=middle;whiteSpace=wrap;rounded=0;fontSize=18;fontStyle=1" vertex="1" parent="su2hYm_iL0SFXj4LvrgG-1">
          <mxGeometry x="1040" y="285" width="130" height="20" as="geometry" />
        </mxCell>
      </root>
    </mxGraphModel>
  </diagram>
  <diagram id="mwPddSEoVuTpFXVdah0V" name="05 - tix">
    <mxGraphModel dx="751" dy="370" grid="1" gridSize="10" guides="1" tooltips="1" connect="1" arrows="1" fold="1" page="1" pageScale="1" pageWidth="1920" pageHeight="1200" math="0" shadow="0">
      <root>
        <mxCell id="Xdf_FE_YTQU1kLrpJqin-0" />
        <mxCell id="Xdf_FE_YTQU1kLrpJqin-1" parent="Xdf_FE_YTQU1kLrpJqin-0" />
        <mxCell id="ZGqEGdcUk_PW5LqjNPqs-0" value="Tickets Service" style="rounded=0;whiteSpace=wrap;html=1;fillColor=#f5f5f5;strokeColor=#666666;fontColor=#333333;fontStyle=1;fontSize=19;" vertex="1" parent="Xdf_FE_YTQU1kLrpJqin-1">
          <mxGeometry x="480" y="220" width="500" height="35" as="geometry" />
        </mxCell>
        <mxCell id="ZGqEGdcUk_PW5LqjNPqs-1" value="" style="rounded=0;whiteSpace=wrap;html=1;fillColor=#f5f5f5;strokeColor=#666666;fontColor=#333333;fontStyle=1;fontSize=19;" vertex="1" parent="Xdf_FE_YTQU1kLrpJqin-1">
          <mxGeometry x="480" y="255" width="500" height="175" as="geometry" />
        </mxCell>
        <mxCell id="ZGqEGdcUk_PW5LqjNPqs-2" value="" style="rounded=0;whiteSpace=wrap;html=1;fontSize=15;" vertex="1" parent="Xdf_FE_YTQU1kLrpJqin-1">
          <mxGeometry x="490" y="261" width="480" height="159" as="geometry" />
        </mxCell>
        <mxCell id="ZGqEGdcUk_PW5LqjNPqs-6" value="Create Ticket Route Handler" style="rounded=0;whiteSpace=wrap;html=1;fontSize=16;align=center;fillColor=#ffe6cc;strokeColor=#d79b00;" vertex="1" parent="Xdf_FE_YTQU1kLrpJqin-1">
          <mxGeometry x="820" y="327" width="140" height="77" as="geometry" />
        </mxCell>
        <mxCell id="ZGqEGdcUk_PW5LqjNPqs-11" style="edgeStyle=orthogonalEdgeStyle;rounded=0;orthogonalLoop=1;jettySize=auto;html=1;exitX=1;exitY=0.5;exitDx=0;exitDy=0;entryX=0;entryY=0.5;entryDx=0;entryDy=0;fontSize=18;" edge="1" parent="Xdf_FE_YTQU1kLrpJqin-1" source="ZGqEGdcUk_PW5LqjNPqs-7" target="ZGqEGdcUk_PW5LqjNPqs-9">
          <mxGeometry relative="1" as="geometry" />
        </mxCell>
        <mxCell id="ZGqEGdcUk_PW5LqjNPqs-7" value="Request" style="rounded=0;whiteSpace=wrap;html=1;fontSize=16;fillColor=#dae8fc;strokeColor=#6c8ebf;fontStyle=1" vertex="1" parent="Xdf_FE_YTQU1kLrpJqin-1">
          <mxGeometry x="230" y="345.75" width="210" height="39.5" as="geometry" />
        </mxCell>
        <mxCell id="ZGqEGdcUk_PW5LqjNPqs-15" style="edgeStyle=orthogonalEdgeStyle;rounded=0;orthogonalLoop=1;jettySize=auto;html=1;exitX=1;exitY=0.5;exitDx=0;exitDy=0;fontSize=13;" edge="1" parent="Xdf_FE_YTQU1kLrpJqin-1" source="ZGqEGdcUk_PW5LqjNPqs-8" target="ZGqEGdcUk_PW5LqjNPqs-6">
          <mxGeometry relative="1" as="geometry" />
        </mxCell>
        <mxCell id="ZGqEGdcUk_PW5LqjNPqs-8" value="requireAuth Middleware" style="rounded=0;whiteSpace=wrap;html=1;fontSize=16;align=center;fillColor=#ffe6cc;strokeColor=#d79b00;" vertex="1" parent="Xdf_FE_YTQU1kLrpJqin-1">
          <mxGeometry x="660" y="327" width="140" height="77" as="geometry" />
        </mxCell>
        <mxCell id="ZGqEGdcUk_PW5LqjNPqs-14" style="edgeStyle=orthogonalEdgeStyle;rounded=0;orthogonalLoop=1;jettySize=auto;html=1;exitX=1;exitY=0.5;exitDx=0;exitDy=0;entryX=0;entryY=0.5;entryDx=0;entryDy=0;fontSize=13;" edge="1" parent="Xdf_FE_YTQU1kLrpJqin-1" source="ZGqEGdcUk_PW5LqjNPqs-9" target="ZGqEGdcUk_PW5LqjNPqs-8">
          <mxGeometry relative="1" as="geometry" />
        </mxCell>
        <mxCell id="ZGqEGdcUk_PW5LqjNPqs-9" value="currentUser Middleware" style="rounded=0;whiteSpace=wrap;html=1;fontSize=16;align=center;fillColor=#ffe6cc;strokeColor=#d79b00;" vertex="1" parent="Xdf_FE_YTQU1kLrpJqin-1">
          <mxGeometry x="500" y="327" width="140" height="77" as="geometry" />
        </mxCell>
        <mxCell id="ZGqEGdcUk_PW5LqjNPqs-10" value="" style="shape=curlyBracket;whiteSpace=wrap;html=1;rounded=1;fontSize=18;align=left;rotation=90;" vertex="1" parent="Xdf_FE_YTQU1kLrpJqin-1">
          <mxGeometry x="640" y="160" width="20" height="300" as="geometry" />
        </mxCell>
        <mxCell id="ZGqEGdcUk_PW5LqjNPqs-12" value="&lt;i style=&quot;font-size: 13px;&quot;&gt;Implemented by common module!&lt;/i&gt;" style="text;html=1;strokeColor=none;fillColor=none;align=center;verticalAlign=middle;whiteSpace=wrap;rounded=0;fontSize=13;" vertex="1" parent="Xdf_FE_YTQU1kLrpJqin-1">
          <mxGeometry x="570" y="273" width="160" height="20" as="geometry" />
        </mxCell>
        <mxCell id="l0HVTZPS2M2WKiGLxtut-0" value="Cookie containing &lt;br&gt;{ jwt: &#39;slkdf&#39; }" style="rounded=0;whiteSpace=wrap;html=1;fontSize=16;fillColor=#dae8fc;strokeColor=#6c8ebf;fontStyle=1" vertex="1" parent="Xdf_FE_YTQU1kLrpJqin-1">
          <mxGeometry x="230" y="385.25" width="210" height="39.5" as="geometry" />
        </mxCell>
      </root>
    </mxGraphModel>
  </diagram>
  <diagram id="P8f8dSY8LKq2cX0D_jep" name="06 - t">
    <mxGraphModel dx="791" dy="389" grid="1" gridSize="10" guides="1" tooltips="1" connect="1" arrows="1" fold="1" page="1" pageScale="1" pageWidth="1920" pageHeight="1200" math="0" shadow="0">
      <root>
        <mxCell id="XmcnWYxKNH0oD3hRxLUI-0" />
        <mxCell id="XmcnWYxKNH0oD3hRxLUI-1" parent="XmcnWYxKNH0oD3hRxLUI-0" />
        <mxCell id="XmcnWYxKNH0oD3hRxLUI-2" value="TicketAttrs" style="rounded=0;whiteSpace=wrap;html=1;fontSize=19;align=center;fillColor=#dae8fc;strokeColor=#6c8ebf;fontStyle=1" vertex="1" parent="XmcnWYxKNH0oD3hRxLUI-1">
          <mxGeometry x="540" y="240" width="210" height="40" as="geometry" />
        </mxCell>
        <mxCell id="XmcnWYxKNH0oD3hRxLUI-3" value="title" style="rounded=0;whiteSpace=wrap;html=1;fontSize=15;align=center;" vertex="1" parent="XmcnWYxKNH0oD3hRxLUI-1">
          <mxGeometry x="540" y="280" width="105" height="40" as="geometry" />
        </mxCell>
        <mxCell id="XmcnWYxKNH0oD3hRxLUI-4" value="string" style="rounded=0;whiteSpace=wrap;html=1;fontSize=15;align=center;" vertex="1" parent="XmcnWYxKNH0oD3hRxLUI-1">
          <mxGeometry x="645" y="280" width="105" height="40" as="geometry" />
        </mxCell>
        <mxCell id="XmcnWYxKNH0oD3hRxLUI-5" value="price" style="rounded=0;whiteSpace=wrap;html=1;fontSize=15;align=center;" vertex="1" parent="XmcnWYxKNH0oD3hRxLUI-1">
          <mxGeometry x="540" y="320" width="105" height="40" as="geometry" />
        </mxCell>
        <mxCell id="XmcnWYxKNH0oD3hRxLUI-6" value="number" style="rounded=0;whiteSpace=wrap;html=1;fontSize=15;align=center;" vertex="1" parent="XmcnWYxKNH0oD3hRxLUI-1">
          <mxGeometry x="645" y="320" width="105" height="40" as="geometry" />
        </mxCell>
        <mxCell id="XmcnWYxKNH0oD3hRxLUI-7" value="userId" style="rounded=0;whiteSpace=wrap;html=1;fontSize=15;align=center;" vertex="1" parent="XmcnWYxKNH0oD3hRxLUI-1">
          <mxGeometry x="540" y="360" width="105" height="40" as="geometry" />
        </mxCell>
        <mxCell id="XmcnWYxKNH0oD3hRxLUI-8" value="string" style="rounded=0;whiteSpace=wrap;html=1;fontSize=15;align=center;" vertex="1" parent="XmcnWYxKNH0oD3hRxLUI-1">
          <mxGeometry x="645" y="360" width="105" height="40" as="geometry" />
        </mxCell>
        <mxCell id="XmcnWYxKNH0oD3hRxLUI-9" value="TicketDoc" style="rounded=0;whiteSpace=wrap;html=1;fontSize=19;align=center;fillColor=#dae8fc;strokeColor=#6c8ebf;fontStyle=1" vertex="1" parent="XmcnWYxKNH0oD3hRxLUI-1">
          <mxGeometry x="770" y="240" width="210" height="40" as="geometry" />
        </mxCell>
        <mxCell id="XmcnWYxKNH0oD3hRxLUI-10" value="title" style="rounded=0;whiteSpace=wrap;html=1;fontSize=15;align=center;" vertex="1" parent="XmcnWYxKNH0oD3hRxLUI-1">
          <mxGeometry x="770" y="280" width="105" height="40" as="geometry" />
        </mxCell>
        <mxCell id="XmcnWYxKNH0oD3hRxLUI-11" value="string" style="rounded=0;whiteSpace=wrap;html=1;fontSize=15;align=center;" vertex="1" parent="XmcnWYxKNH0oD3hRxLUI-1">
          <mxGeometry x="875" y="280" width="105" height="40" as="geometry" />
        </mxCell>
        <mxCell id="XmcnWYxKNH0oD3hRxLUI-12" value="price" style="rounded=0;whiteSpace=wrap;html=1;fontSize=15;align=center;" vertex="1" parent="XmcnWYxKNH0oD3hRxLUI-1">
          <mxGeometry x="770" y="320" width="105" height="40" as="geometry" />
        </mxCell>
        <mxCell id="XmcnWYxKNH0oD3hRxLUI-13" value="number" style="rounded=0;whiteSpace=wrap;html=1;fontSize=15;align=center;" vertex="1" parent="XmcnWYxKNH0oD3hRxLUI-1">
          <mxGeometry x="875" y="320" width="105" height="40" as="geometry" />
        </mxCell>
        <mxCell id="XmcnWYxKNH0oD3hRxLUI-14" value="userId" style="rounded=0;whiteSpace=wrap;html=1;fontSize=15;align=center;" vertex="1" parent="XmcnWYxKNH0oD3hRxLUI-1">
          <mxGeometry x="770" y="360" width="105" height="40" as="geometry" />
        </mxCell>
        <mxCell id="XmcnWYxKNH0oD3hRxLUI-15" value="string" style="rounded=0;whiteSpace=wrap;html=1;fontSize=15;align=center;" vertex="1" parent="XmcnWYxKNH0oD3hRxLUI-1">
          <mxGeometry x="875" y="360" width="105" height="40" as="geometry" />
        </mxCell>
        <mxCell id="XmcnWYxKNH0oD3hRxLUI-16" value="TicketModel" style="rounded=0;whiteSpace=wrap;html=1;fontSize=19;align=center;fillColor=#dae8fc;strokeColor=#6c8ebf;fontStyle=1" vertex="1" parent="XmcnWYxKNH0oD3hRxLUI-1">
          <mxGeometry x="1000" y="240" width="210" height="40" as="geometry" />
        </mxCell>
        <mxCell id="XmcnWYxKNH0oD3hRxLUI-17" value="build" style="rounded=0;whiteSpace=wrap;html=1;fontSize=15;align=center;" vertex="1" parent="XmcnWYxKNH0oD3hRxLUI-1">
          <mxGeometry x="1000" y="280" width="105" height="40" as="geometry" />
        </mxCell>
        <mxCell id="XmcnWYxKNH0oD3hRxLUI-18" value="(attrs) =&amp;gt; Doc" style="rounded=0;whiteSpace=wrap;html=1;fontSize=15;align=center;" vertex="1" parent="XmcnWYxKNH0oD3hRxLUI-1">
          <mxGeometry x="1105" y="280" width="105" height="40" as="geometry" />
        </mxCell>
        <mxCell id="XmcnWYxKNH0oD3hRxLUI-23" value="Properties that are required to build a new Ticket" style="text;html=1;strokeColor=none;fillColor=none;align=center;verticalAlign=middle;whiteSpace=wrap;rounded=0;fontSize=15;fontStyle=2" vertex="1" parent="XmcnWYxKNH0oD3hRxLUI-1">
          <mxGeometry x="577.5" y="400" width="135" height="60" as="geometry" />
        </mxCell>
        <mxCell id="XmcnWYxKNH0oD3hRxLUI-24" value="Properties that a Ticket has" style="text;html=1;strokeColor=none;fillColor=none;align=center;verticalAlign=middle;whiteSpace=wrap;rounded=0;fontSize=15;fontStyle=2" vertex="1" parent="XmcnWYxKNH0oD3hRxLUI-1">
          <mxGeometry x="807.5" y="400" width="135" height="60" as="geometry" />
        </mxCell>
        <mxCell id="XmcnWYxKNH0oD3hRxLUI-25" value="Properties tied to the Model" style="text;html=1;strokeColor=none;fillColor=none;align=center;verticalAlign=middle;whiteSpace=wrap;rounded=0;fontSize=15;fontStyle=2" vertex="1" parent="XmcnWYxKNH0oD3hRxLUI-1">
          <mxGeometry x="1037.5" y="320" width="135" height="60" as="geometry" />
        </mxCell>
        <mxCell id="XmcnWYxKNH0oD3hRxLUI-26" value="userId" style="rounded=0;whiteSpace=wrap;html=1;fontSize=15;align=center;" vertex="1" parent="XmcnWYxKNH0oD3hRxLUI-1">
          <mxGeometry x="770" y="360" width="105" height="40" as="geometry" />
        </mxCell>
        <mxCell id="XmcnWYxKNH0oD3hRxLUI-27" value="string" style="rounded=0;whiteSpace=wrap;html=1;fontSize=15;align=center;" vertex="1" parent="XmcnWYxKNH0oD3hRxLUI-1">
          <mxGeometry x="875" y="360" width="105" height="40" as="geometry" />
        </mxCell>
      </root>
    </mxGraphModel>
  </diagram>
</mxfile>
